<svg width="12" height="12" viewBox="0 0 12 12" fill="none" xmlns="http://www.w3.org/2000/svg">
<g id="Solid/plus">
<path id="Mask" d="M12 7.02321V4.97679C12 4.62054 11.7134 4.33393 11.3571 4.33393H7.66607V0.642857C7.66607 0.286607 7.37946 0 7.02321 0H4.97679C4.62054 0 4.33393 0.286607 4.33393 0.642857V4.33393H0.642857C0.286607 4.33393 0 4.62054 0 4.97679V7.02321C0 7.37946 0.286607 7.66607 0.642857 7.66607H4.33393V11.3571C4.33393 11.7134 4.62054 12 4.97679 12H7.02321C7.37946 12 7.66607 11.7134 7.66607 11.3571V7.66607H11.3571C11.7134 7.66607 12 7.37946 12 7.02321Z" fill="black"/>
<mask id="mask0_1_217" style="mask-type:luminance" maskUnits="userSpaceOnUse" x="0" y="0" width="12" height="12">
<path id="Mask_2" d="M12 7.02321V4.97679C12 4.62054 11.7134 4.33393 11.3571 4.33393H7.66607V0.642857C7.66607 0.286607 7.37946 0 7.02321 0H4.97679C4.62054 0 4.33393 0.286607 4.33393 0.642857V4.33393H0.642857C0.286607 4.33393 0 4.62054 0 4.97679V7.02321C0 7.37946 0.286607 7.66607 0.642857 7.66607H4.33393V11.3571C4.33393 11.7134 4.62054 12 4.97679 12H7.02321C7.37946 12 7.66607 11.7134 7.66607 11.3571V7.66607H11.3571C11.7134 7.66607 12 7.37946 12 7.02321Z" fill="white"/>
</mask>
<g mask="url(#mask0_1_217)">
<g id="Color">
<rect id="Purple" x="-0.857147" y="-0.857147" width="13.7143" height="13.7143" fill="#FF7E1B"/>
</g>
</g>
</g>
</svg>
